<?xml version="1.0" encoding="UTF-8" standalone="no"?>
<svg
   xmlns:dc="http://purl.org/dc/elements/1.1/"
   xmlns:cc="http://creativecommons.org/ns#"
   xmlns:rdf="http://www.w3.org/1999/02/22-rdf-syntax-ns#"
   xmlns:svg="http://www.w3.org/2000/svg"
   xmlns="http://www.w3.org/2000/svg"
   xmlns:sodipodi="http://sodipodi.sourceforge.net/DTD/sodipodi-0.dtd"
   xmlns:inkscape="http://www.inkscape.org/namespaces/inkscape"
   width="1022"
   height="550"
   version="1.1"
   style="height:550px;width:1022px;perspective-origin:511px 275px;transform-origin:511px 275px;"
   id="svg2"
   inkscape:version="0.91 r13725"
   sodipodi:docname="teaser.svg">
  <metadata
     id="metadata590">
    <rdf:RDF>
      <cc:Work
         rdf:about="">
        <dc:format>image/svg+xml</dc:format>
        <dc:type
           rdf:resource="http://purl.org/dc/dcmitype/StillImage" />
        <dc:title></dc:title>
      </cc:Work>
    </rdf:RDF>
  </metadata>
  <defs
     id="defs588" />
  <sodipodi:namedview
     pagecolor="#ffffff"
     bordercolor="#666666"
     borderopacity="1"
     objecttolerance="10"
     gridtolerance="10"
     guidetolerance="10"
     inkscape:pageopacity="0"
     inkscape:pageshadow="2"
     inkscape:window-width="1753"
     inkscape:window-height="1152"
     id="namedview586"
     showgrid="false"
     inkscape:zoom="1.4899534"
     inkscape:cx="511"
     inkscape:cy="275"
     inkscape:window-x="1280"
     inkscape:window-y="0"
     inkscape:window-maximized="0"
     inkscape:current-layer="svg2" />
  <path
     class="category-0"
     d="m 15,544.32552 c 470,0 470,-31.92736 940,-31.92736 l 0,-49.07833 c -470,0 -470,31.92736 -940,31.92736 z"
     style="fill:#ab3d3f;fill-opacity:0.55;stroke:#ab3d3f;stroke-opacity:0"
     id="path8"
     inkscape:connector-curvature="0" />
  <path
     class="category-6"
     d="m 15,268.23726 c 470,0 470,-73.76437 940,-73.76437 l 0,-18.85696 c -470,0 -470,73.76437 -940,73.76437 z"
     style="fill:#ac673e;fill-opacity:0.55;stroke:#ac673e;stroke-opacity:0"
     id="path10"
     inkscape:connector-curvature="0" />
  <path
     class="category-9"
     d="m 15,41.34515 c 470,0 470,176.83031 940,176.83031 l 0,-10.29018 c -470,0 -470,-176.83031 -940,-176.83031 z"
     style="fill:#193442;fill-opacity:0.55;stroke:#193442;stroke-opacity:0"
     id="path12"
     inkscape:connector-curvature="0" />
  <path
     class="category-5"
     d="m 15,348.76768 c 470,0 470,-204.29083 940,-204.29083 l 0,-10.25927 c -470,0 -470,204.29083 -940,204.29083 z"
     style="fill:#996699;fill-opacity:0.55;stroke:#996699;stroke-opacity:0"
     id="path14"
     inkscape:connector-curvature="0" />
  <path
     class="category-3"
     d="m 15,431.99719 c 470,0 470,18.29665 940,18.29665 l 0,-10.21097 c -470,0 -470,-18.29665 -940,-18.29665 z"
     style="fill:#663333;fill-opacity:0.55;stroke:#663333;stroke-opacity:0"
     id="path16"
     inkscape:connector-curvature="0" />
  <path
     class="category-2"
     d="m 15,452.33024 c 470,0 470,5.24942 940,5.24942 l 0,-7.28582 c -470,0 -470,-5.24942 -940,-5.24942 z"
     style="fill:#669999;fill-opacity:0.55;stroke:#669999;stroke-opacity:0"
     id="path18"
     inkscape:connector-curvature="0" />
  <path
     class="category-9"
     d="m 15,26.9899 c 470,0 470,33.26629 940,33.26629 l 0,-6.55744 c -470,0 -470,-33.26628 -940,-33.26628 z"
     style="fill:#193442;fill-opacity:0.55;stroke:#193442;stroke-opacity:0"
     id="path20"
     inkscape:connector-curvature="0" />
  <path
     class="category-6"
     d="m 15,200.58598 c 470,0 470,-174.09262 940,-174.09262 l 0,-6.4048 c -470,0 -470,174.09262 -940,174.09262 z"
     style="fill:#ac673e;fill-opacity:0.55;stroke:#ac673e;stroke-opacity:0"
     id="path22"
     inkscape:connector-curvature="0" />
  <path
     class="category-0"
     d="m 15,485.9868 c 470,0 470,-389.60871 940,-389.60871 l 0,-6.05123 c -470,0 -470,389.60871 -940,389.60871 z"
     style="fill:#ab3d3f;fill-opacity:0.55;stroke:#ab3d3f;stroke-opacity:0"
     id="path24"
     inkscape:connector-curvature="0" />
  <path
     class="category-7"
     d="m 15,187.07699 c 470,0 470,158.91041 940,158.91041 l 0,-5.59719 c -470,0 -470,-158.91042 -940,-158.91042 z"
     style="fill:#3a9736;fill-opacity:0.55;stroke:#3a9736;stroke-opacity:0"
     id="path26"
     inkscape:connector-curvature="0" />
  <path
     class="category-7"
     d="m 15,177.64464 c 470,0 470,-69.55245 940,-69.55245 l 0,-5.20499 c -470,0 -470,69.55245 -940,69.55245 z"
     style="fill:#3a9736;fill-opacity:0.55;stroke:#3a9736;stroke-opacity:0"
     id="path28"
     inkscape:connector-curvature="0" />
  <path
     class="category-5"
     d="m 15,354.43057 c 470,0 470,48.5122 940,48.5122 l 0,-4.91131 c -470,0 -470,-48.5122 -940,-48.5122 z"
     style="fill:#996699;fill-opacity:0.55;stroke:#996699;stroke-opacity:0"
     id="path30"
     inkscape:connector-curvature="0" />
  <path
     class="category-6"
     d="m 15,327.6193 c 470,0 470,196.5316 940,196.5316 l 0,-4.73356 c -470,0 -470,-196.5316 -940,-196.5316 z"
     style="fill:#ac673e;fill-opacity:0.55;stroke:#ac673e;stroke-opacity:0"
     id="path32"
     inkscape:connector-curvature="0" />
  <path
     class="category-0"
     d="m 15,550 c 470,0 470,0 940,0 l 0,-4.44375 c -470,0 -470,0 -940,0 z"
     style="fill:#ab3d3f;fill-opacity:0.55;stroke:#ab3d3f;stroke-opacity:0"
     id="path34"
     inkscape:connector-curvature="0" />
  <path
     class="category-8"
     d="m 15,162.9455 c 470,0 470,177.44471 940,177.44471 l 0,-4.24475 c -470,0 -470,-177.44471 -940,-177.44471 z"
     style="fill:#333366;fill-opacity:0.55;stroke:#333366;stroke-opacity:0"
     id="path36"
     inkscape:connector-curvature="0" />
  <path
     class="category-0"
     d="m 15,491.24395 c 470,0 470,-324.93477 940,-324.93477 l 0,-4.1636 c -470,0 -470,324.93477 -940,324.93477 z"
     style="fill:#ab3d3f;fill-opacity:0.55;stroke:#ab3d3f;stroke-opacity:0"
     id="path38"
     inkscape:connector-curvature="0" />
  <path
     class="category-4"
     d="m 15,367.84875 c 470,0 470,-281.30295 940,-281.30295 l 0,-4.05733 c -470,0 -470,281.30294 -940,281.30294 z"
     style="fill:#366096;fill-opacity:0.55;stroke:#366096;stroke-opacity:0"
     id="path40"
     inkscape:connector-curvature="0" />
  <path
     class="category-6"
     d="m 15,204.54864 c 470,0 470,-159.62532 940,-159.62532 l 0,-3.96266 c -470,0 -470,159.62532 -940,159.62532 z"
     style="fill:#ac673e;fill-opacity:0.55;stroke:#ac673e;stroke-opacity:0"
     id="path42"
     inkscape:connector-curvature="0" />
  <path
     class="category-6"
     d="m 15,331.10668 c 470,0 470,211.75627 940,211.75627 l 0,-3.48738 c -470,0 -470,-211.75627 -940,-211.75627 z"
     style="fill:#ac673e;fill-opacity:0.55;stroke:#ac673e;stroke-opacity:0"
     id="path44"
     inkscape:connector-curvature="0" />
  <path
     class="category-9"
     d="m 15,148.38933 c 470,0 470,389.57776 940,389.57776 l 0,-3.37338 c -470,0 -470,-389.57777 -940,-389.57777 z"
     style="fill:#193442;fill-opacity:0.55;stroke:#193442;stroke-opacity:0"
     id="path46"
     inkscape:connector-curvature="0" />
  <path
     class="category-8"
     d="m 15,157.99748 c 470,0 470,-94.39109 940,-94.39109 l 0,-3.3502 c -470,0 -470,94.39108 -940,94.39108 z"
     style="fill:#333366;fill-opacity:0.55;stroke:#333366;stroke-opacity:0"
     id="path48"
     inkscape:connector-curvature="0" />
  <path
     class="category-2"
     d="m 15,444.34887 c 470,0 470,-296.27644 940,-296.27644 l 0,-2.85753 c -470,0 -470,296.27645 -940,296.27645 z"
     style="fill:#669999;fill-opacity:0.55;stroke:#669999;stroke-opacity:0"
     id="path50"
     inkscape:connector-curvature="0" />
  <path
     class="category-1"
     d="m 15,465.47213 c 470,0 470,-266.04156 940,-266.04156 l 0,-2.64693 c -470,0 -470,266.04156 -940,266.04156 z"
     style="fill:#666699;fill-opacity:0.55;stroke:#666699;stroke-opacity:0"
     id="path52"
     inkscape:connector-curvature="0" />
  <path
     class="category-6"
     d="m 15,270.84169 c 470,0 470,-48.34806 940,-48.34806 l 0,-2.60442 c -470,0 -470,48.34805 -940,48.34805 z"
     style="fill:#ac673e;fill-opacity:0.55;stroke:#ac673e;stroke-opacity:0"
     id="path54"
     inkscape:connector-curvature="0" />
  <path
     class="category-0"
     d="m 15,493.58754 c 470,0 470,-291.81337 940,-291.81337 l 0,-2.3436 c -470,0 -470,291.81338 -940,291.81338 z"
     style="fill:#ab3d3f;fill-opacity:0.55;stroke:#ab3d3f;stroke-opacity:0"
     id="path56"
     inkscape:connector-curvature="0" />
  <path
     class="category-2"
     d="m 15,454.27776 c 470,0 470,72.92001 940,72.92001 l 0,-1.94752 c -470,0 -470,-72.92001 -940,-72.92001 z"
     style="fill:#669999;fill-opacity:0.55;stroke:#669999;stroke-opacity:0"
     id="path58"
     inkscape:connector-curvature="0" />
  <path
     class="category-9"
     d="m 15,29.25042 c 470,0 470,128.05147 940,128.05147 l 0,-1.88376 c -470,0 -470,-128.05147 -940,-128.05147 z"
     style="fill:#193442;fill-opacity:0.55;stroke:#193442;stroke-opacity:0"
     id="path60"
     inkscape:connector-curvature="0" />
  <path
     class="category-3"
     d="m 15,419.20305 c 470,0 470,-388.74895 940,-388.74895 l 0,-1.84706 c -470,0 -470,388.74895 -940,388.74895 z"
     style="fill:#663333;fill-opacity:0.55;stroke:#663333;stroke-opacity:0"
     id="path62"
     inkscape:connector-curvature="0" />
  <path
     class="category-4"
     d="m 15,372.56492 c 470,0 470,-148.15468 940,-148.15468 l 0,-1.84319 c -470,0 -470,148.15468 -940,148.15468 z"
     style="fill:#366096;fill-opacity:0.55;stroke:#366096;stroke-opacity:0"
     id="path64"
     inkscape:connector-curvature="0" />
  <path
     class="category-9"
     d="m 15,20.43247 c 470,0 470,20.32339 940,20.32339 l 0,-1.82001 c -470,0 -470,-20.32339 -940,-20.32339 z"
     style="fill:#193442;fill-opacity:0.55;stroke:#193442;stroke-opacity:0"
     id="path66"
     inkscape:connector-curvature="0" />
  <path
     class="category-0"
     d="m 15,495.24719 c 470,0 470,-268.09535 940,-268.09535 l 0,-1.65964 c -470,0 -470,268.09534 -940,268.09534 z"
     style="fill:#ab3d3f;fill-opacity:0.55;stroke:#ab3d3f;stroke-opacity:0"
     id="path68"
     inkscape:connector-curvature="0" />
  <path
     class="category-2"
     d="m 15,441.49135 c 470,0 470,-352.45704 940,-352.45704 l 0,-1.46644 c -470,0 -470,352.45704 -940,352.45704 z"
     style="fill:#669999;fill-opacity:0.55;stroke:#669999;stroke-opacity:0"
     id="path70"
     inkscape:connector-curvature="0" />
  <path
     class="category-7"
     d="m 15,171.02152 c 470,0 470,-150.93296 940,-150.93296 l 0,-1.42973 c -470,0 -470,150.93296 -940,150.93296 z"
     style="fill:#3a9736;fill-opacity:0.55;stroke:#3a9736;stroke-opacity:0"
     id="path72"
     inkscape:connector-curvature="0" />
  <path
     class="category-7"
     d="m 15,179.05505 c 470,0 470,-20.34082 940,-20.34082 l 0,-1.41041 c -470,0 -470,20.34082 -940,20.34082 z"
     style="fill:#3a9736;fill-opacity:0.55;stroke:#3a9736;stroke-opacity:0"
     id="path74"
     inkscape:connector-curvature="0" />
  <path
     class="category-4"
     d="m 15,363.0012 c 470,0 470,-334.39416 940,-334.39416 l 0,-1.40847 c -470,0 -470,334.39415 -940,334.39415 z"
     style="fill:#366096;fill-opacity:0.55;stroke:#366096;stroke-opacity:0"
     id="path76"
     inkscape:connector-curvature="0" />
  <path
     class="category-7"
     d="m 15,172.43965 c 470,0 470,-107.51946 940,-107.51946 l 0,-1.3138 c -470,0 -470,107.51946 -940,107.51946 z"
     style="fill:#3a9736;fill-opacity:0.55;stroke:#3a9736;stroke-opacity:0"
     id="path78"
     inkscape:connector-curvature="0" />
  <path
     class="category-4"
     d="m 15,369.73445 c 470,0 470,-208.09893 940,-208.09893 l 0,-1.29642 c -470,0 -470,208.09893 -940,208.09893 z"
     style="fill:#366096;fill-opacity:0.55;stroke:#366096;stroke-opacity:0"
     id="path80"
     inkscape:connector-curvature="0" />
  <path
     class="category-1"
     d="m 15,462.67837 c 470,0 470,-372.35151 940,-372.35151 l 0,-1.29255 c -470,0 -470,372.3515 -940,372.3515 z"
     style="fill:#666699;fill-opacity:0.55;stroke:#666699;stroke-opacity:0"
     id="path82"
     inkscape:connector-curvature="0" />
  <path
     class="category-0"
     d="m 15,545.55625 c 470,0 470,-17.07365 940,-17.07365 l 0,-1.23073 c -470,0 -470,17.07365 -940,17.07365 z"
     style="fill:#ab3d3f;fill-opacity:0.55;stroke:#ab3d3f;stroke-opacity:0"
     id="path84"
     inkscape:connector-curvature="0" />
  <path
     class="category-0"
     d="m 15,479.10671 c 470,0 470,-446.28197 940,-446.28197 l 0,-1.19788 c -470,0 -470,446.28197 -940,446.28197 z"
     style="fill:#ab3d3f;fill-opacity:0.55;stroke:#ab3d3f;stroke-opacity:0"
     id="path86"
     inkscape:connector-curvature="0" />
  <path
     class="category-0"
     d="m 15,487.08035 c 470,0 470,-337.77333 940,-337.77333 l 0,-1.09355 c -470,0 -470,337.77333 -940,337.77333 z"
     style="fill:#ab3d3f;fill-opacity:0.55;stroke:#ab3d3f;stroke-opacity:0"
     id="path88"
     inkscape:connector-curvature="0" />
  <path
     class="category-4"
     d="m 15,411.24488 c 470,0 470,133.31442 940,133.31442 l 0,-1.05684 c -470,0 -470,-133.31442 -940,-133.31442 z"
     style="fill:#366096;fill-opacity:0.55;stroke:#366096;stroke-opacity:0"
     id="path90"
     inkscape:connector-curvature="0" />
  <path
     class="category-3"
     d="m 15,420.58641 c 470,0 470,-333.01854 940,-333.01854 l 0,-1.02207 c -470,0 -470,333.01854 -940,333.01854 z"
     style="fill:#663333;fill-opacity:0.55;stroke:#663333;stroke-opacity:0"
     id="path92"
     inkscape:connector-curvature="0" />
  <path
     class="category-4"
     d="m 15,370.72173 c 470,0 470,-174.60078 940,-174.60078 l 0,-0.98729 c -470,0 -470,174.60079 -940,174.60079 z"
     style="fill:#366096;fill-opacity:0.55;stroke:#366096;stroke-opacity:0"
     id="path94"
     inkscape:connector-curvature="0" />
  <path
     class="category-7"
     d="m 15,188.07007 c 470,0 470,351.3055 940,351.3055 l 0,-0.93126 c -470,0 -470,-351.3055 -940,-351.3055 z"
     style="fill:#3a9736;fill-opacity:0.55;stroke:#3a9736;stroke-opacity:0"
     id="path96"
     inkscape:connector-curvature="0" />
  <path
     class="category-3"
     d="m 15,433.13324 c 470,0 470,112.35732 940,112.35732 l 0,-0.93126 c -470,0 -470,-112.35731 -940,-112.35731 z"
     style="fill:#663333;fill-opacity:0.55;stroke:#663333;stroke-opacity:0"
     id="path98"
     inkscape:connector-curvature="0" />
  <path
     class="category-0"
     d="m 15,479.93556 c 470,0 470,-432.34792 940,-432.34792 l 0,-0.82885 c -470,0 -470,432.34792 -940,432.34792 z"
     style="fill:#ab3d3f;fill-opacity:0.55;stroke:#ab3d3f;stroke-opacity:0"
     id="path100"
     inkscape:connector-curvature="0" />
  <path
     class="category-4"
     d="m 15,363.79141 c 470,0 470,-317.96195 940,-317.96195 l 0,-0.79021 c -470,0 -470,317.96195 -940,317.96195 z"
     style="fill:#366096;fill-opacity:0.55;stroke:#366096;stroke-opacity:0"
     id="path102"
     inkscape:connector-curvature="0" />
  <path
     class="category-9"
     d="m 15,145.01594 c 470,0 470,374.28161 940,374.28161 l 0,-0.78828 c -470,0 -470,-374.28161 -940,-374.28161 z"
     style="fill:#193442;fill-opacity:0.55;stroke:#193442;stroke-opacity:0"
     id="path104"
     inkscape:connector-curvature="0" />
  <path
     class="category-7"
     d="m 15,179.77184 c 470,0 470,-4.15591 940,-4.15591 l 0,-0.71679 c -470,0 -470,4.15591 -940,4.15591 z"
     style="fill:#3a9736;fill-opacity:0.55;stroke:#3a9736;stroke-opacity:0"
     id="path106"
     inkscape:connector-curvature="0" />
  <path
     class="category-5"
     d="m 15,337.923 c 470,0 470,-310.72443 940,-310.72443 l 0,-0.70521 c -470,0 -470,310.72443 -940,310.72443 z"
     style="fill:#996699;fill-opacity:0.55;stroke:#996699;stroke-opacity:0"
     id="path108"
     inkscape:connector-curvature="0" />
  <path
     class="category-1"
     d="m 15,461.10373 c 470,0 470,-429.47687 940,-429.47687 l 0,-0.67815 c -470,0 -470,429.47687 -940,429.47687 z"
     style="fill:#666699;fill-opacity:0.55;stroke:#666699;stroke-opacity:0"
     id="path110"
     inkscape:connector-curvature="0" />
  <path
     class="category-8"
     d="m 15,158.69495 c 470,0 470,16.20419 940,16.20419 l 0,-0.6743 c -470,0 -470,-16.20418 -940,-16.20418 z"
     style="fill:#333366;fill-opacity:0.55;stroke:#333366;stroke-opacity:0"
     id="path112"
     inkscape:connector-curvature="0" />
  <path
     class="category-5"
     d="m 15,349.44584 c 470,0 470,-154.31218 940,-154.31218 l 0,-0.66077 c -470,0 -470,154.31218 -940,154.31218 z"
     style="fill:#996699;fill-opacity:0.55;stroke:#996699;stroke-opacity:0"
     id="path114"
     inkscape:connector-curvature="0" />
  <path
     class="category-5"
     d="m 15,355.48161 c 470,0 470,188.02085 940,188.02085 l 0,-0.63951 c -470,0 -470,-188.02085 -940,-188.02085 z"
     style="fill:#996699;fill-opacity:0.55;stroke:#996699;stroke-opacity:0"
     id="path116"
     inkscape:connector-curvature="0" />
  <path
     class="category-9"
     d="m 15,18.61246 c 470,0 470,0 940,0 L 955,18 C 485,18 485,18 15,18 Z"
     style="fill:#193442;fill-opacity:0.55;stroke:#193442;stroke-opacity:0"
     id="path118"
     inkscape:connector-curvature="0" />
  <path
     class="category-4"
     d="m 15,368.43803 c 470,0 470,-223.3719 940,-223.3719 l 0,-0.58928 c -470,0 -470,223.3719 -940,223.3719 z"
     style="fill:#366096;fill-opacity:0.55;stroke:#366096;stroke-opacity:0"
     id="path120"
     inkscape:connector-curvature="0" />
  <path
     class="category-2"
     d="m 15,444.88405 c 470,0 470,-248.10041 940,-248.10041 l 0,-0.51392 c -470,0 -470,248.1004 -940,248.1004 z"
     style="fill:#669999;fill-opacity:0.55;stroke:#669999;stroke-opacity:0"
     id="path122"
     inkscape:connector-curvature="0" />
  <path
     class="category-1"
     d="m 15,465.97447 c 470,0 470,-240.48227 940,-240.48227 l 0,-0.50234 c -470,0 -470,240.48227 -940,240.48227 z"
     style="fill:#666699;fill-opacity:0.55;stroke:#666699;stroke-opacity:0"
     id="path124"
     inkscape:connector-curvature="0" />
  <path
     class="category-2"
     d="m 15,439.73896 c 470,0 470,-408.79025 940,-408.79025 l 0,-0.49461 c -470,0 -470,408.79025 -940,408.79025 z"
     style="fill:#669999;fill-opacity:0.55;stroke:#669999;stroke-opacity:0"
     id="path126"
     inkscape:connector-curvature="0" />
  <path
     class="category-4"
     d="m 15,410.18804 c 470,0 470,114.85741 940,114.85741 l 0,-0.48301 c -470,0 -470,-114.85741 -940,-114.85741 z"
     style="fill:#366096;fill-opacity:0.55;stroke:#366096;stroke-opacity:0"
     id="path128"
     inkscape:connector-curvature="0" />
  <path
     class="category-3"
     d="m 15,421.21819 c 470,0 470,-259.09966 940,-259.09966 l 0,-0.48301 c -470,0 -470,259.09966 -940,259.09966 z"
     style="fill:#663333;fill-opacity:0.55;stroke:#663333;stroke-opacity:0"
     id="path130"
     inkscape:connector-curvature="0" />
  <path
     class="category-8"
     d="m 15,163.48068 c 470,0 470,374.96363 940,374.96363 l 0,-0.47722 c -470,0 -470,-374.96363 -940,-374.96363 z"
     style="fill:#333366;fill-opacity:0.55;stroke:#333366;stroke-opacity:0"
     id="path132"
     inkscape:connector-curvature="0" />
  <path
     class="category-5"
     d="m 15,338.50841 c 470,0 470,-256.01994 940,-256.01994 l 0,-0.4695 c -470,0 -470,256.01995 -940,256.01995 z"
     style="fill:#996699;fill-opacity:0.55;stroke:#996699;stroke-opacity:0"
     id="path134"
     inkscape:connector-curvature="0" />
  <path
     class="category-3"
     d="m 15,421.78622 c 470,0 470,-196.95672 940,-196.95672 l 0,-0.41926 c -470,0 -470,196.95672 -940,196.95672 z"
     style="fill:#663333;fill-opacity:0.55;stroke:#663333;stroke-opacity:0"
     id="path136"
     inkscape:connector-curvature="0" />
  <path
     class="category-5"
     d="m 15,354.8421 c 470,0 470,169.72034 940,169.72034 l 0,-0.41154 c -470,0 -470,-169.72033 -940,-169.72033 z"
     style="fill:#996699;fill-opacity:0.55;stroke:#996699;stroke-opacity:0"
     id="path138"
     inkscape:connector-curvature="0" />
  <path
     class="category-9"
     d="m 15,27.36666 c 470,0 470,75.49929 940,75.49929 l 0,-0.37675 c -470,0 -470,-75.4993 -940,-75.4993 z"
     style="fill:#193442;fill-opacity:0.55;stroke:#193442;stroke-opacity:0"
     id="path140"
     inkscape:connector-curvature="0" />
  <path
     class="category-3"
     d="m 15,419.56434 c 470,0 470,-373.37358 940,-373.37358 l 0,-0.3613 c -470,0 -470,373.37359 -940,373.37359 z"
     style="fill:#663333;fill-opacity:0.55;stroke:#663333;stroke-opacity:0"
     id="path142"
     inkscape:connector-curvature="0" />
  <path
     class="category-2"
     d="m 15,440.02491 c 470,0 470,-393.54821 940,-393.54821 l 0,-0.28594 c -470,0 -470,393.5482 -940,393.5482 z"
     style="fill:#669999;fill-opacity:0.55;stroke:#669999;stroke-opacity:0"
     id="path144"
     inkscape:connector-curvature="0" />
  <path
     class="category-1"
     d="m 15,461.38581 c 470,0 470,-414.62702 940,-414.62702 l 0,-0.28209 c -470,0 -470,414.62703 -940,414.62703 z"
     style="fill:#666699;fill-opacity:0.55;stroke:#666699;stroke-opacity:0"
     id="path146"
     inkscape:connector-curvature="0" />
  <path
     class="category-3"
     d="m 15,432.20199 c 470,0 470,93.04826 940,93.04826 l 0,-0.2048 c -470,0 -470,-93.04826 -940,-93.04826 z"
     style="fill:#663333;fill-opacity:0.55;stroke:#663333;stroke-opacity:0"
     id="path148"
     inkscape:connector-curvature="0" />
  <path
     class="category-2"
     d="m 15,445.04442 c 470,0 470,-220.05456 940,-220.05456 l 0,-0.16036 c -470,0 -470,220.05455 -940,220.05455 z"
     style="fill:#669999;fill-opacity:0.55;stroke:#669999;stroke-opacity:0"
     id="path150"
     inkscape:connector-curvature="0" />
  <path
     class="category-3"
     d="m 15,421.36696 c 470,0 470,-225.09724 940,-225.09724 l 0,-0.14877 c -470,0 -470,225.09724 -940,225.09724 z"
     style="fill:#663333;fill-opacity:0.55;stroke:#663333;stroke-opacity:0"
     id="path152"
     inkscape:connector-curvature="0" />
  <path
     class="category-3"
     d="m 15,420.73518 c 470,0 470,-275.52028 940,-275.52028 l 0,-0.14877 c -470,0 -470,275.52028 -940,275.52028 z"
     style="fill:#663333;fill-opacity:0.55;stroke:#663333;stroke-opacity:0"
     id="path154"
     inkscape:connector-curvature="0" />
  <path
     class="category-1"
     d="m 15,462.81941 c 470,0 470,-314.60594 940,-314.60594 l 0,-0.14104 c -470,0 -470,314.60594 -940,314.60594 z"
     style="fill:#666699;fill-opacity:0.55;stroke:#666699;stroke-opacity:0"
     id="path156"
     inkscape:connector-curvature="0" />
  <path
     class="category-5"
     d="m 15,338.03892 c 470,0 470,-292.99967 940,-292.99967 l 0,-0.11593 C 485,44.92332 485,337.923 15,337.923 Z"
     style="fill:#996699;fill-opacity:0.55;stroke:#996699;stroke-opacity:0"
     id="path158"
     inkscape:connector-curvature="0" />
  <path
     class="category-7"
     d="m 15,171.12585 c 470,0 470,-130.16519 940,-130.16519 l 0,-0.10433 c -470,0 -470,130.16519 -940,130.16519 z"
     style="fill:#3a9736;fill-opacity:0.55;stroke:#3a9736;stroke-opacity:0"
     id="path160"
     inkscape:connector-curvature="0" />
  <path
     class="category-8"
     d="m 15,154.64727 c 470,0 470,-113.79094 940,-113.79094 l 0,-0.10047 c -470,0 -470,113.79095 -940,113.79095 z"
     style="fill:#333366;fill-opacity:0.55;stroke:#333366;stroke-opacity:0"
     id="path162"
     inkscape:connector-curvature="0" />
  <path
     class="category-5"
     d="m 15,349.51926 c 470,0 470,-126.95221 940,-126.95221 l 0,-0.0734 c -470,0 -470,126.95221 -940,126.95221 z"
     style="fill:#996699;fill-opacity:0.55;stroke:#996699;stroke-opacity:0"
     id="path164"
     inkscape:connector-curvature="0" />
  <path
     class="category-7"
     d="m 15,187.13881 c 470,0 470,332.27853 940,332.27853 l 0,-0.0618 c -470,0 -470,-332.27852 -940,-332.27852 z"
     style="fill:#3a9736;fill-opacity:0.55;stroke:#3a9736;stroke-opacity:0"
     id="path166"
     inkscape:connector-curvature="0" />
  <path
     class="category-8"
     d="m 15,163.00346 c 470,0 470,356.35206 940,356.35206 l 0,-0.058 c -470,0 -470,-356.35206 -940,-356.35206 z"
     style="fill:#333366;fill-opacity:0.55;stroke:#333366;stroke-opacity:0"
     id="path168"
     inkscape:connector-curvature="0" />
  <path
     class="category-1"
     d="m 15,471.76874 c 470,0 470,55.48313 940,55.48313 l 0,-0.0541 c -470,0 -470,-55.48313 -940,-55.48313 z"
     style="fill:#666699;fill-opacity:0.55;stroke:#666699;stroke-opacity:0"
     id="path170"
     inkscape:connector-curvature="0" />
  <path
     class="category-8"
     d="m 15,154.54681 c 470,0 470,-135.88798 940,-135.88798 l 0,-0.0464 c -470,0 -470,135.88798 -940,135.88798 z"
     style="fill:#333366;fill-opacity:0.55;stroke:#333366;stroke-opacity:0"
     id="path172"
     inkscape:connector-curvature="0" />
  <path
     class="category-2"
     d="m 15,454.31447 c 470,0 470,91.2128 940,91.2128 l 0,-0.0367 c -470,0 -470,-91.2128 -940,-91.2128 z"
     style="fill:#669999;fill-opacity:0.55;stroke:#669999;stroke-opacity:0"
     id="path174"
     inkscape:connector-curvature="0" />
  <path
     class="category-1"
     d="m 15,471.79772 c 470,0 470,73.75853 940,73.75853 l 0,-0.029 c -470,0 -470,-73.75853 -940,-73.75853 z"
     style="fill:#666699;fill-opacity:0.55;stroke:#666699;stroke-opacity:0"
     id="path176"
     inkscape:connector-curvature="0" />
  <path
     class="category-2"
     d="m 15,444.37012 c 470,0 470,-282.23033 940,-282.23033 l 0,-0.0213 c -470,0 -470,282.23034 -940,282.23034 z"
     style="fill:#669999;fill-opacity:0.55;stroke:#669999;stroke-opacity:0"
     id="path178"
     inkscape:connector-curvature="0" />
  <path
     class="category-8"
     d="m 15,158.01873 c 470,0 470,-55.13153 940,-55.13153 l 0,-0.0213 c -470,0 -470,55.13153 -940,55.13153 z"
     style="fill:#333366;fill-opacity:0.55;stroke:#333366;stroke-opacity:0"
     id="path180"
     inkscape:connector-curvature="0" />
  <path
     class="category-5"
     d="m 15,348.78507 c 470,0 470,-188.44597 940,-188.44597 l 0,-0.0174 c -470,0 -470,188.44597 -940,188.44597 z"
     style="fill:#996699;fill-opacity:0.55;stroke:#996699;stroke-opacity:0"
     id="path182"
     inkscape:connector-curvature="0" />
  <path
     class="category-8"
     d="m 15,158.70075 c 470,0 470,59.48051 940,59.48051 l 0,-0.006 c -470,0 -470,-59.48051 -940,-59.48051 z"
     style="fill:#333366;fill-opacity:0.55;stroke:#333366;stroke-opacity:0"
     id="path184"
     inkscape:connector-curvature="0" />
  <path
     class="category-1"
     d="m 15,462.8252 c 470,0 470,-300.67962 940,-300.67962 l 0,-0.006 c -470,0 -470,300.67962 -940,300.67962 z"
     style="fill:#666699;fill-opacity:0.55;stroke:#666699;stroke-opacity:0"
     id="path186"
     inkscape:connector-curvature="0" />
  <path
     class="category-8"
     d="m 15,158.02066 c 470,0 470,-0.71684 940,-0.71684 l 0,-0.002 c -470,0 -470,0.71684 -940,0.71684 z"
     style="fill:#333366;fill-opacity:0.55;stroke:#333366;stroke-opacity:0"
     id="path188"
     inkscape:connector-curvature="0" />
  <path
     class="category-1"
     d="m 15,471.71464 c 470,0 470,-8.39481 940,-8.39481 l 0,-5.74017 c -470,0 -470,8.39481 -940,8.39481 z"
     style="fill:#666699;fill-opacity:0.55;stroke:#666699;stroke-opacity:0"
     id="path190"
     inkscape:connector-curvature="0" />
  <path
     class="category-4"
     d="m 15,409.70503 c 470,0 470,30.37784 940,30.37784 l 0,-37.1401 c -470,0 -470,-30.37785 -940,-30.37785 z"
     style="fill:#366096;fill-opacity:0.55;stroke:#366096;stroke-opacity:0"
     id="path192"
     inkscape:connector-curvature="0" />
  <path
     class="category-6"
     d="m 15,322.88574 c 470,0 470,75.14572 940,75.14572 l 0,-52.04406 c -470,0 -470,-75.14571 -940,-75.14571 z"
     style="fill:#ac673e;fill-opacity:0.55;stroke:#ac673e;stroke-opacity:0"
     id="path194"
     inkscape:connector-curvature="0" />
  <path
     class="category-9"
     d="m 15,144.22766 c 470,0 470,191.9178 940,191.9178 l 0,-102.88251 c -470,0 -470,-191.9178 -940,-191.9178 z"
     style="fill:#193442;fill-opacity:0.55;stroke:#193442;stroke-opacity:0"
     id="path196"
     inkscape:connector-curvature="0" />
  <path
     class="category-7"
     d="m 15,181.47979 c 470,0 470,38.40942 940,38.40942 l 0,-1.70795 c -470,0 -470,-38.40942 -940,-38.40942 z"
     style="fill:#3a9736;fill-opacity:0.55;stroke:#3a9736;stroke-opacity:0"
     id="path198"
     inkscape:connector-curvature="0" />
  <path
     class="category-6"
     d="m 15,249.3803 c 470,0 470,-89.05859 940,-89.05859 l 0,-1.60748 c -470,0 -470,89.05859 -940,89.05859 z"
     style="fill:#ac673e;fill-opacity:0.55;stroke:#ac673e;stroke-opacity:0"
     id="path200"
     inkscape:connector-curvature="0" />
  <path
     class="category-6"
     d="m 15,247.77282 c 470,0 470,-113.55524 940,-113.55524 l 0,-26.12539 c -470,0 -470,113.55524 -940,113.55524 z"
     style="fill:#ac673e;fill-opacity:0.55;stroke:#ac673e;stroke-opacity:0"
     id="path202"
     inkscape:connector-curvature="0" />
  <path
     class="category-6"
     d="m 15,221.64743 c 470,0 470,-139.62846 940,-139.62846 l 0,-17.09878 c -470,0 -470,139.62845 -940,139.62845 z"
     style="fill:#ac673e;fill-opacity:0.55;stroke:#ac673e;stroke-opacity:0"
     id="path204"
     inkscape:connector-curvature="0" />
  <path
     class="category-9"
     d="m 15,31.05497 c 470,0 470,143.16987 940,143.16987 l 0,-1.80455 c -470,0 -470,-143.16987 -940,-143.16987 z"
     style="fill:#193442;fill-opacity:0.55;stroke:#193442;stroke-opacity:0"
     id="path206"
     inkscape:connector-curvature="0" />
  <g
     id="g208"
     class="ribbon-mouse"
     transform="matrix(0,-1,1,0,-30,550)">
    <path
       inkscape:connector-curvature="0"
       id="path210"
       style="fill-opacity:0"
       d="m 405.77234,45 c 0,470 -191.9178,470 -191.9178,940 l 102.88251,0 c 0,-470 191.9178,-470 191.9178,-940 z" />
    <path
       inkscape:connector-curvature="0"
       id="path212"
       style="fill-opacity:0"
       d="m 227.11426,45 c 0,470 -75.14572,470 -75.14572,940 l 52.04406,0 c 0,-470 75.14571,-470 75.14571,-940 z" />
    <path
       inkscape:connector-curvature="0"
       id="path214"
       style="fill-opacity:0"
       d="m 5.6744773,45 c 0,470 31.9273617,470 31.9273617,940 l 49.078335,0 c 0,-470 -31.927361,-470 -31.927361,-940 z" />
    <path
       inkscape:connector-curvature="0"
       id="path216"
       style="fill-opacity:0"
       d="m 140.29497,45 c 0,470 -30.37784,470 -30.37784,940 l 37.1401,0 c 0,-470 30.37785,-470 30.37785,-940 z" />
    <path
       inkscape:connector-curvature="0"
       id="path218"
       style="fill-opacity:0"
       d="m 302.22718,45 c 0,470 113.55524,470 113.55524,940 l 26.12539,0 c 0,-470 -113.55524,-470 -113.55524,-940 z" />
    <path
       inkscape:connector-curvature="0"
       id="path220"
       style="fill-opacity:0"
       d="m 281.76274,45 c 0,470 73.76437,470 73.76437,940 l 18.85696,0 c 0,-470 -73.76437,-470 -73.76437,-940 z" />
    <path
       inkscape:connector-curvature="0"
       id="path222"
       style="fill-opacity:0"
       d="m 328.35257,45 c 0,470 139.62846,470 139.62846,940 l 17.09878,0 c 0,-470 -139.62845,-470 -139.62845,-940 z" />
    <path
       inkscape:connector-curvature="0"
       id="path224"
       style="fill-opacity:0"
       d="m 508.65485,45 c 0,470 -176.83031,470 -176.83031,940 l 10.29018,0 c 0,-470 176.83031,-470 176.83031,-940 z" />
    <path
       inkscape:connector-curvature="0"
       id="path226"
       style="fill-opacity:0"
       d="m 201.23232,45 c 0,470 204.29083,470 204.29083,940 l 10.25927,0 c 0,-470 -204.29083,-470 -204.29083,-940 z" />
    <path
       inkscape:connector-curvature="0"
       id="path228"
       style="fill-opacity:0"
       d="m 118.00281,45 c 0,470 -18.296648,470 -18.296648,940 l 10.210968,0 c 0,-470 18.29665,-470 18.29665,-940 z" />
    <path
       inkscape:connector-curvature="0"
       id="path230"
       style="fill-opacity:0"
       d="m 97.669765,45 c 0,470 -5.249423,470 -5.249423,940 l 7.28582,0 c 0,-470 5.249418,-470 5.249418,-940 z" />
    <path
       inkscape:connector-curvature="0"
       id="path232"
       style="fill-opacity:0"
       d="m 523.0101,45 c 0,470 -33.26629,470 -33.26629,940 l 6.55744,0 c 0,-470 33.26628,-470 33.26628,-940 z" />
    <path
       inkscape:connector-curvature="0"
       id="path234"
       style="fill-opacity:0"
       d="m 349.41402,45 c 0,470 174.09262,470 174.09262,940 l 6.4048,0 c 0,-470 -174.09262,-470 -174.09262,-940 z" />
    <path
       inkscape:connector-curvature="0"
       id="path236"
       style="fill-opacity:0"
       d="m 64.013204,45 c 0,470 389.608706,470 389.608706,940 l 6.05123,0 c 0,-470 -389.608705,-470 -389.608705,-940 z" />
    <path
       inkscape:connector-curvature="0"
       id="path238"
       style="fill-opacity:0"
       d="m 78.285362,45 c 0,470 8.394812,470 8.394812,940 l 5.740168,0 c 0,-470 -8.394813,-470 -8.394813,-940 z" />
    <path
       inkscape:connector-curvature="0"
       id="path240"
       style="fill-opacity:0"
       d="m 362.92301,45 c 0,470 -158.91041,470 -158.91041,940 l 5.59719,0 c 0,-470 158.91042,-470 158.91042,-940 z" />
    <path
       inkscape:connector-curvature="0"
       id="path242"
       style="fill-opacity:0"
       d="m 372.35536,45 c 0,470 69.55245,470 69.55245,940 l 5.20499,0 c 0,-470 -69.55245,-470 -69.55245,-940 z" />
    <path
       inkscape:connector-curvature="0"
       id="path244"
       style="fill-opacity:0"
       d="m 195.56943,45 c 0,470 -48.5122,470 -48.5122,940 l 4.91131,0 c 0,-470 48.5122,-470 48.5122,-940 z" />
    <path
       inkscape:connector-curvature="0"
       id="path246"
       style="fill-opacity:0"
       d="m 222.3807,45 c 0,470 -196.531605,470 -196.531605,940 l 4.733562,0 c 0,-470 196.531603,-470 196.531603,-940 z" />
    <path
       inkscape:connector-curvature="0"
       id="path248"
       style="fill-opacity:0"
       d="m 0,45 c 0,470 0,470 0,940 l 4.4437514,0 c 0,-470 0,-470 0,-940 z" />
    <path
       inkscape:connector-curvature="0"
       id="path250"
       style="fill-opacity:0"
       d="m 387.0545,45 c 0,470 -177.44471,470 -177.44471,940 l 4.24475,0 c 0,-470 177.44471,-470 177.44471,-940 z" />
    <path
       inkscape:connector-curvature="0"
       id="path252"
       style="fill-opacity:0"
       d="m 58.756053,45 c 0,470 324.934767,470 324.934767,940 l 4.1636,0 c 0,-470 -324.934765,-470 -324.934765,-940 z" />
    <path
       inkscape:connector-curvature="0"
       id="path254"
       style="fill-opacity:0"
       d="m 182.15125,45 c 0,470 281.30295,470 281.30295,940 l 4.05733,0 c 0,-470 -281.30294,-470 -281.30294,-940 z" />
    <path
       inkscape:connector-curvature="0"
       id="path256"
       style="fill-opacity:0"
       d="m 345.45136,45 c 0,470 159.62532,470 159.62532,940 l 3.96266,0 c 0,-470 -159.62532,-470 -159.62532,-940 z" />
    <path
       inkscape:connector-curvature="0"
       id="path258"
       style="fill-opacity:0"
       d="m 218.89332,45 c 0,470 -211.7562689,470 -211.7562689,940 l 3.4873789,0 c 0,-470 211.75627,-470 211.75627,-940 z" />
    <path
       inkscape:connector-curvature="0"
       id="path260"
       style="fill-opacity:0"
       d="m 401.61067,45 c 0,470 -389.577764,470 -389.577764,940 l 3.373387,0 c 0,-470 389.577767,-470 389.577767,-940 z" />
    <path
       inkscape:connector-curvature="0"
       id="path262"
       style="fill-opacity:0"
       d="m 392.00252,45 c 0,470 94.39109,470 94.39109,940 l 3.3502,0 c 0,-470 -94.39108,-470 -94.39108,-940 z" />
    <path
       inkscape:connector-curvature="0"
       id="path264"
       style="fill-opacity:0"
       d="m 105.65113,45 c 0,470 296.27644,470 296.27644,940 l 2.85753,0 c 0,-470 -296.27645,-470 -296.27645,-940 z" />
    <path
       inkscape:connector-curvature="0"
       id="path266"
       style="fill-opacity:0"
       d="m 84.527866,45 c 0,470 266.041564,470 266.041564,940 l 2.64693,0 c 0,-470 -266.041564,-470 -266.041564,-940 z" />
    <path
       inkscape:connector-curvature="0"
       id="path268"
       style="fill-opacity:0"
       d="m 279.15831,45 c 0,470 48.34806,470 48.34806,940 l 2.60442,0 c 0,-470 -48.34805,-470 -48.34805,-940 z" />
    <path
       inkscape:connector-curvature="0"
       id="path270"
       style="fill-opacity:0"
       d="m 56.412458,45 c 0,470 291.813372,470 291.813372,940 l 2.3436,0 c 0,-470 -291.813377,-470 -291.813377,-940 z" />
    <path
       inkscape:connector-curvature="0"
       id="path272"
       style="fill-opacity:0"
       d="m 95.722242,45 c 0,470 -72.920014,470 -72.920014,940 l 1.947522,0 c 0,-470 72.920015,-470 72.920015,-940 z" />
    <path
       inkscape:connector-curvature="0"
       id="path274"
       style="fill-opacity:0"
       d="m 520.74958,45 c 0,470 -128.05147,470 -128.05147,940 l 1.88376,0 c 0,-470 128.05147,-470 128.05147,-940 z" />
    <path
       inkscape:connector-curvature="0"
       id="path276"
       style="fill-opacity:0"
       d="m 130.79695,45 c 0,470 388.74895,470 388.74895,940 l 1.84706,0 c 0,-470 -388.74895,-470 -388.74895,-940 z" />
    <path
       inkscape:connector-curvature="0"
       id="path278"
       style="fill-opacity:0"
       d="m 177.43508,45 c 0,470 148.15468,470 148.15468,940 l 1.84319,0 c 0,-470 -148.15468,-470 -148.15468,-940 z" />
    <path
       inkscape:connector-curvature="0"
       id="path280"
       style="fill-opacity:0"
       d="m 529.56753,45 c 0,470 -20.32339,470 -20.32339,940 l 1.82001,0 c 0,-470 20.32339,-470 20.32339,-940 z" />
    <path
       inkscape:connector-curvature="0"
       id="path282"
       style="fill-opacity:0"
       d="m 518.94503,45 c 0,470 -143.16987,470 -143.16987,940 l 1.80455,0 c 0,-470 143.16987,-470 143.16987,-940 z" />
    <path
       inkscape:connector-curvature="0"
       id="path284"
       style="fill-opacity:0"
       d="m 368.52021,45 c 0,470 -38.40942,470 -38.40942,940 l 1.70795,0 c 0,-470 38.40942,-470 38.40942,-940 z" />
    <path
       inkscape:connector-curvature="0"
       id="path286"
       style="fill-opacity:0"
       d="m 54.752813,45 c 0,470 268.095347,470 268.095347,940 l 1.65964,0 C 324.5078,515 56.412458,515 56.412458,45 Z" />
    <path
       inkscape:connector-curvature="0"
       id="path288"
       style="fill-opacity:0"
       d="m 300.6197,45 c 0,470 89.05859,470 89.05859,940 l 1.60748,0 c 0,-470 -89.05859,-470 -89.05859,-940 z" />
    <path
       inkscape:connector-curvature="0"
       id="path290"
       style="fill-opacity:0"
       d="m 108.50865,45 c 0,470 352.45704,470 352.45704,940 l 1.46644,0 c 0,-470 -352.45704,-470 -352.45704,-940 z" />
    <path
       inkscape:connector-curvature="0"
       id="path292"
       style="fill-opacity:0"
       d="m 378.97848,45 c 0,470 150.93296,470 150.93296,940 l 1.42973,0 c 0,-470 -150.93296,-470 -150.93296,-940 z" />
    <path
       inkscape:connector-curvature="0"
       id="path294"
       style="fill-opacity:0"
       d="m 370.94495,45 c 0,470 20.34082,470 20.34082,940 l 1.41041,0 c 0,-470 -20.34082,-470 -20.34082,-940 z" />
    <path
       inkscape:connector-curvature="0"
       id="path296"
       style="fill-opacity:0"
       d="m 186.9988,45 c 0,470 334.39416,470 334.39416,940 l 1.40847,0 c 0,-470 -334.39415,-470 -334.39415,-940 z" />
    <path
       inkscape:connector-curvature="0"
       id="path298"
       style="fill-opacity:0"
       d="m 377.56035,45 c 0,470 107.51946,470 107.51946,940 l 1.3138,0 c 0,-470 -107.51946,-470 -107.51946,-940 z" />
    <path
       inkscape:connector-curvature="0"
       id="path300"
       style="fill-opacity:0"
       d="m 180.26555,45 c 0,470 208.09893,470 208.09893,940 l 1.29642,0 c 0,-470 -208.09893,-470 -208.09893,-940 z" />
    <path
       inkscape:connector-curvature="0"
       id="path302"
       style="fill-opacity:0"
       d="m 87.321633,45 c 0,470 372.351507,470 372.351507,940 l 1.29255,0 c 0,-470 -372.351505,-470 -372.351505,-940 z" />
    <path
       inkscape:connector-curvature="0"
       id="path304"
       style="fill-opacity:0"
       d="m 4.4437514,45 c 0,470 17.0736526,470 17.0736526,940 l 1.230726,0 C 22.74813,515 5.6744773,515 5.6744773,45 Z" />
    <path
       inkscape:connector-curvature="0"
       id="path306"
       style="fill-opacity:0"
       d="m 70.893291,45 c 0,470 446.281969,470 446.281969,940 l 1.19788,0 c 0,-470 -446.281968,-470 -446.281968,-940 z" />
    <path
       inkscape:connector-curvature="0"
       id="path308"
       style="fill-opacity:0"
       d="m 62.919655,45 c 0,470 337.773325,470 337.773325,940 l 1.09355,0 c 0,-470 -337.773326,-470 -337.773326,-940 z" />
    <path
       inkscape:connector-curvature="0"
       id="path310"
       style="fill-opacity:0"
       d="m 138.75512,45 c 0,470 -133.3144227,470 -133.3144227,940 l 1.05684,0 c 0,-470 133.3144227,-470 133.3144227,-940 z" />
    <path
       inkscape:connector-curvature="0"
       id="path312"
       style="fill-opacity:0"
       d="m 129.41359,45 c 0,470 333.01854,470 333.01854,940 l 1.02207,0 c 0,-470 -333.01854,-470 -333.01854,-940 z" />
    <path
       inkscape:connector-curvature="0"
       id="path314"
       style="fill-opacity:0"
       d="m 179.27827,45 c 0,470 174.60078,470 174.60078,940 l 0.98729,0 c 0,-470 -174.60079,-470 -174.60079,-940 z" />
    <path
       inkscape:connector-curvature="0"
       id="path316"
       style="fill-opacity:0"
       d="m 361.92993,45 c 0,470 -351.3055,470 -351.3055,940 l 0.931256,0 c 0,-470 351.305504,-470 351.305504,-940 z" />
    <path
       inkscape:connector-curvature="0"
       id="path318"
       style="fill-opacity:0"
       d="m 116.86676,45 c 0,470 -112.3573184,470 -112.3573184,940 l 0.9312557,0 c 0,-470 112.3573127,-470 112.3573127,-940 z" />
    <path
       inkscape:connector-curvature="0"
       id="path320"
       style="fill-opacity:0"
       d="m 70.064435,45 c 0,470 432.347925,470 432.347925,940 l 0.82885,0 c 0,-470 -432.347919,-470 -432.347919,-940 z" />
    <path
       inkscape:connector-curvature="0"
       id="path322"
       style="fill-opacity:0"
       d="m 186.20859,45 c 0,470 317.96195,470 317.96195,940 l 0.79021,0 c 0,-470 -317.96195,-470 -317.96195,-940 z" />
    <path
       inkscape:connector-curvature="0"
       id="path324"
       style="fill-opacity:0"
       d="m 404.98406,45 c 0,470 -374.281615,470 -374.281615,940 l 0.788283,0 c 0,-470 374.281612,-470 374.281612,-940 z" />
    <path
       inkscape:connector-curvature="0"
       id="path326"
       style="fill-opacity:0"
       d="m 370.22816,45 c 0,470 4.15591,470 4.15591,940 l 0.71679,0 c 0,-470 -4.15591,-470 -4.15591,-940 z" />
    <path
       inkscape:connector-curvature="0"
       id="path328"
       style="fill-opacity:0"
       d="m 212.077,45 c 0,470 310.72443,470 310.72443,940 l 0.70521,0 c 0,-470 -310.72443,-470 -310.72443,-940 z" />
    <path
       inkscape:connector-curvature="0"
       id="path330"
       style="fill-opacity:0"
       d="m 88.896267,45 c 0,470 429.476873,470 429.476873,940 l 0.67815,0 c 0,-470 -429.476868,-470 -429.476868,-940 z" />
    <path
       inkscape:connector-curvature="0"
       id="path332"
       style="fill-opacity:0"
       d="m 391.30505,45 c 0,470 -16.20419,470 -16.20419,940 l 0.6743,0 c 0,-470 16.20418,-470 16.20418,-940 z" />
    <path
       inkscape:connector-curvature="0"
       id="path334"
       style="fill-opacity:0"
       d="m 200.55416,45 c 0,470 154.31218,470 154.31218,940 l 0.66077,0 c 0,-470 -154.31218,-470 -154.31218,-940 z" />
    <path
       inkscape:connector-curvature="0"
       id="path336"
       style="fill-opacity:0"
       d="m 194.51839,45 c 0,470 -188.0208527,470 -188.0208527,940 l 0.6395138,0 C 7.1370511,515 195.1579,515 195.1579,45 Z" />
    <path
       inkscape:connector-curvature="0"
       id="path338"
       style="fill-opacity:0"
       d="m 531.38754,45 c 0,470 0,470 0,940 L 532,985 c 0,-470 0,-470 0,-940 z" />
    <path
       inkscape:connector-curvature="0"
       id="path340"
       style="fill-opacity:0"
       d="m 181.56197,45 c 0,470 223.3719,470 223.3719,940 l 0.58928,0 c 0,-470 -223.3719,-470 -223.3719,-940 z" />
    <path
       inkscape:connector-curvature="0"
       id="path342"
       style="fill-opacity:0"
       d="m 105.11595,45 c 0,470 248.10041,470 248.10041,940 l 0.51392,0 c 0,-470 -248.1004,-470 -248.1004,-940 z" />
    <path
       inkscape:connector-curvature="0"
       id="path344"
       style="fill-opacity:0"
       d="m 84.025529,45 c 0,470 240.482271,470 240.482271,940 l 0.50234,0 c 0,-470 -240.482274,-470 -240.482274,-940 z" />
    <path
       inkscape:connector-curvature="0"
       id="path346"
       style="fill-opacity:0"
       d="m 110.26104,45 c 0,470 408.79025,470 408.79025,940 l 0.49461,0 c 0,-470 -408.79025,-470 -408.79025,-940 z" />
    <path
       inkscape:connector-curvature="0"
       id="path348"
       style="fill-opacity:0"
       d="m 139.81196,45 c 0,470 -114.857411,470 -114.857411,940 l 0.483016,0 c 0,-470 114.857405,-470 114.857405,-940 z" />
    <path
       inkscape:connector-curvature="0"
       id="path350"
       style="fill-opacity:0"
       d="m 128.78181,45 c 0,470 259.09966,470 259.09966,940 l 0.48301,0 c 0,-470 -259.09966,-470 -259.09966,-940 z" />
    <path
       inkscape:connector-curvature="0"
       id="path352"
       style="fill-opacity:0"
       d="m 386.51932,45 c 0,470 -374.963634,470 -374.963634,940 l 0.47722,0 c 0,-470 374.963634,-470 374.963634,-940 z" />
    <path
       inkscape:connector-curvature="0"
       id="path354"
       style="fill-opacity:0"
       d="m 211.49159,45 c 0,470 256.01994,470 256.01994,940 l 0.4695,0 c 0,-470 -256.01995,-470 -256.01995,-940 z" />
    <path
       inkscape:connector-curvature="0"
       id="path356"
       style="fill-opacity:0"
       d="m 128.21378,45 c 0,470 196.95672,470 196.95672,940 l 0.41926,0 c 0,-470 -196.95672,-470 -196.95672,-940 z" />
    <path
       inkscape:connector-curvature="0"
       id="path358"
       style="fill-opacity:0"
       d="m 195.1579,45 c 0,470 -169.720335,470 -169.720335,940 l 0.41153,0 c 0,-470 169.720335,-470 169.720335,-940 z" />
    <path
       inkscape:connector-curvature="0"
       id="path360"
       style="fill-opacity:0"
       d="m 522.63334,45 c 0,470 -75.49929,470 -75.49929,940 l 0.37675,0 c 0,-470 75.4993,-470 75.4993,-940 z" />
    <path
       inkscape:connector-curvature="0"
       id="path362"
       style="fill-opacity:0"
       d="m 130.43566,45 c 0,470 373.37358,470 373.37358,940 l 0.3613,0 c 0,-470 -373.37359,-470 -373.37359,-940 z" />
    <path
       inkscape:connector-curvature="0"
       id="path364"
       style="fill-opacity:0"
       d="m 109.97509,45 c 0,470 393.54821,470 393.54821,940 l 0.28594,0 c 0,-470 -393.5482,-470 -393.5482,-940 z" />
    <path
       inkscape:connector-curvature="0"
       id="path366"
       style="fill-opacity:0"
       d="m 88.614185,45 c 0,470 414.627025,470 414.627025,940 l 0.28209,0 C 503.5233,515 88.896267,515 88.896267,45 Z" />
    <path
       inkscape:connector-curvature="0"
       id="path368"
       style="fill-opacity:0"
       d="m 117.79801,45 c 0,470 -93.04826,470 -93.04826,940 l 0.204799,0 c 0,-470 93.048261,-470 93.048261,-940 z" />
    <path
       inkscape:connector-curvature="0"
       id="path370"
       style="fill-opacity:0"
       d="m 104.95558,45 c 0,470 220.05456,470 220.05456,940 l 0.16036,0 c 0,-470 -220.05455,-470 -220.05455,-940 z" />
    <path
       inkscape:connector-curvature="0"
       id="path372"
       style="fill-opacity:0"
       d="m 128.63304,45 c 0,470 225.09724,470 225.09724,940 l 0.14877,0 c 0,-470 -225.09724,-470 -225.09724,-940 z" />
    <path
       inkscape:connector-curvature="0"
       id="path374"
       style="fill-opacity:0"
       d="m 129.26482,45 c 0,470 275.52028,470 275.52028,940 l 0.14877,0 c 0,-470 -275.52028,-470 -275.52028,-940 z" />
    <path
       inkscape:connector-curvature="0"
       id="path376"
       style="fill-opacity:0"
       d="m 87.180593,45 c 0,470 314.605937,470 314.605937,940 l 0.14104,0 c 0,-470 -314.605937,-470 -314.605937,-940 z" />
    <path
       inkscape:connector-curvature="0"
       id="path378"
       style="fill-opacity:0"
       d="m 211.96108,45 c 0,470 292.99967,470 292.99967,940 l 0.11593,0 C 505.07668,515 212.077,515 212.077,45 Z" />
    <path
       inkscape:connector-curvature="0"
       id="path380"
       style="fill-opacity:0"
       d="m 378.87415,45 c 0,470 130.16519,470 130.16519,940 l 0.10433,0 c 0,-470 -130.16519,-470 -130.16519,-940 z" />
    <path
       inkscape:connector-curvature="0"
       id="path382"
       style="fill-opacity:0"
       d="m 395.35273,45 c 0,470 113.79094,470 113.79094,940 l 0.10047,0 c 0,-470 -113.79095,-470 -113.79095,-940 z" />
    <path
       inkscape:connector-curvature="0"
       id="path384"
       style="fill-opacity:0"
       d="m 200.48074,45 c 0,470 126.95221,470 126.95221,940 l 0.0734,0 c 0,-470 -126.95221,-470 -126.95221,-940 z" />
    <path
       inkscape:connector-curvature="0"
       id="path386"
       style="fill-opacity:0"
       d="m 362.86119,45 c 0,470 -332.278533,470 -332.278533,940 l 0.06183,0 c 0,-470 332.278523,-470 332.278523,-940 z" />
    <path
       inkscape:connector-curvature="0"
       id="path388"
       style="fill-opacity:0"
       d="m 386.99654,45 c 0,470 -356.352057,470 -356.352057,940 l 0.05796,0 c 0,-470 356.352057,-470 356.352057,-940 z" />
    <path
       inkscape:connector-curvature="0"
       id="path390"
       style="fill-opacity:0"
       d="m 78.231264,45 c 0,470 -55.483134,470 -55.483134,940 l 0.0541,0 c 0,-470 55.483134,-470 55.483134,-940 z" />
    <path
       inkscape:connector-curvature="0"
       id="path392"
       style="fill-opacity:0"
       d="m 395.45319,45 c 0,470 135.88798,470 135.88798,940 l 0.0464,0 c 0,-470 -135.88798,-470 -135.88798,-940 z" />
    <path
       inkscape:connector-curvature="0"
       id="path394"
       style="fill-opacity:0"
       d="m 95.685533,45 c 0,470 -91.2128006,470 -91.2128006,940 l 0.036709,0 c 0,-470 91.2128006,-470 91.2128006,-940 z" />
    <path
       inkscape:connector-curvature="0"
       id="path396"
       style="fill-opacity:0"
       d="m 78.202283,45 c 0,470 -73.7585316,470 -73.7585316,940 l 0.028981,0 c 0,-470 73.7585316,-470 73.7585316,-940 z" />
    <path
       inkscape:connector-curvature="0"
       id="path398"
       style="fill-opacity:0"
       d="m 105.62988,45 c 0,470 282.23033,470 282.23033,940 l 0.0213,0 c 0,-470 -282.23034,-470 -282.23034,-940 z" />
    <path
       inkscape:connector-curvature="0"
       id="path400"
       style="fill-opacity:0"
       d="m 391.98127,45 c 0,470 55.13153,470 55.13153,940 l 0.0213,0 c 0,-470 -55.13153,-470 -55.13153,-940 z" />
    <path
       inkscape:connector-curvature="0"
       id="path402"
       style="fill-opacity:0"
       d="m 201.21493,45 c 0,470 188.44597,470 188.44597,940 l 0.0174,0 c 0,-470 -188.44597,-470 -188.44597,-940 z" />
    <path
       inkscape:connector-curvature="0"
       id="path404"
       style="fill-opacity:0"
       d="m 391.29925,45 c 0,470 -59.48051,470 -59.48051,940 l 0.006,0 c 0,-470 59.48051,-470 59.48051,-940 z" />
    <path
       inkscape:connector-curvature="0"
       id="path406"
       style="fill-opacity:0"
       d="m 87.174796,45 c 0,470 300.679624,470 300.679624,940 l 0.006,0 c 0,-470 -300.679617,-470 -300.679617,-940 z" />
    <path
       inkscape:connector-curvature="0"
       id="path408"
       style="fill-opacity:0"
       d="m 391.97934,45 c 0,470 0.71684,470 0.71684,940 l 0.002,0 c 0,-470 -0.71684,-470 -0.71684,-940 z" />
  </g>
</svg>
